# xmcd
#
# Track frame offsets:
#	150
#	11771
#	24422
#	35866
#	47101
#	58790
#	72720
#	84691
#	98972
#	111157
#	124676
#	135860
#
# Disc length: 1976 seconds
#
# Revision: 0
# Processed by: cddbd v1.5.2PL0 Copyright (c) Steve Scherf et al.
# Submitted via: EasyCDDAExtractor 16.0.9.1
#
DISCID=a907b60c
DTITLE=Ray Charles - N-102 Ray Charles  Blues Is My Middle Name CD2
DYEAR=1900
DGENRE=
TTITLE0=What Have I Done
TTITLE1=I'm Glad for Your Sake
TTITLE2=Let's Have A Ball
TTITLE3=A Sentimental Blues
TTITLE4=If I Give You My Love
TTITLE5=This Love is Mine
TTITLE6=Can't You See
TTITLE7=Baby, Let Me Hold Your Hand
TTITLE8=See See Rider
TTITLE9=Alone in the City
TTITLE10=I'll Do Anything But Work
TTITLE11=Going Down Slow
EXTD=
EXTT0=
EXTT1=
EXTT2=
EXTT3=
EXTT4=
EXTT5=
EXTT6=
EXTT7=
EXTT8=
EXTT9=
EXTT10=
EXTT11=
PLAYORDER=
